<svg xmlns="http://www.w3.org/2000/svg" width="66" height="20" viewBox="0 0 66 20" fill="none">
<g clip-path="url(#clip0_541_9574)">
<path d="M5.12552 4.54188H0V0.571411H15.5775V4.54188H10.2398V18.7478H5.13669L5.12552 4.54188Z" fill="white"/>
<path d="M11.2612 5.96509H15.7726V13.9848C15.7726 13.9848 15.8507 15.1995 17.1572 15.1995C18.4526 15.1995 18.5865 13.9848 18.5865 13.9848V5.96509H23.2542V19.0013H18.5865V17.7865C18.5865 17.7865 17.146 19.4287 14.7564 19.4287C12.6236 19.4287 11.7861 17.7865 11.7861 17.7865C11.7861 17.7865 11.2612 16.8754 11.2612 15.5932C11.2612 14.2997 11.2612 5.96509 11.2612 5.96509Z" fill="white"/>
<path d="M28.1619 5.96509H23.5947V19.0013H28.2624V11.7577C28.2624 11.7577 28.4522 10.1043 30.8977 9.80058H31.6794V6.07759H30.8865C30.8865 6.07759 28.8319 6.28005 28.1619 7.89973V5.96509Z" fill="white"/>
<path d="M62.4829 5.96509H57.9155V19.0013H62.5832V11.7577C62.5832 11.7577 62.7732 10.1043 65.2187 9.80058H66.0003V6.07759H65.2073C65.2073 6.07759 63.1529 6.28005 62.4829 7.89973V5.96509Z" fill="white"/>
<path d="M36.7648 5.72946H32.1753V18.7657H36.7313V11.1396C36.7313 11.1396 37.0105 9.7899 38.1383 9.7899C39.2661 9.7899 39.5341 11.1509 39.5341 11.1509V18.7544H44.0678V9.2163C44.0678 9.2163 44.012 5.42577 40.7289 5.42577C40.7289 5.42577 38.4844 5.34704 36.7648 7.2029V5.72946Z" fill="white"/>
<path d="M50.7513 5.42532C50.7513 5.42532 44.5093 5.35783 44.5093 12.3539C44.5093 12.3539 44.4311 19.2151 50.7513 19.2151C50.7513 19.2151 56.2789 19.665 57.2168 14.2323H52.9735C52.9735 14.2323 52.4043 16.0207 50.9746 16.0207C49.5455 16.0207 49.0206 13.9399 48.9425 13.4675H57.3508C57.3399 13.4675 58.0098 5.42532 50.7513 5.42532ZM48.976 10.4531C48.976 10.4531 49.4561 8.46221 50.8744 8.46221C52.5606 8.46221 52.9288 10.4531 52.9288 10.4531H48.976Z" fill="white"/>
</g>
<defs>
<clipPath id="clip0_541_9574">
<rect width="66" height="18.8571" fill="white" transform="translate(0 0.571411)"/>
</clipPath>
</defs>
</svg>