<svg xmlns="http://www.w3.org/2000/svg" width="12" height="12" viewBox="0 0 12 12" fill="none">
  <g clip-path="url(#clip0_656_1747)">
    <path d="M5.62024 1.93191L4.69934 0.187979C4.63829 0.072361 4.51828 0 4.38752 0H1.61631C1.4927 0 1.37812 0.0647205 1.31429 0.170582C1.25049 0.276443 1.24675 0.408 1.30449 0.517317L3.1949 4.0973C3.70284 3.72791 4.28617 3.45624 4.91727 3.31067L5.62024 1.93191Z" fill="black"/>
    <path d="M10.3836 0H7.61238C7.47979 0 7.35844 0.0743592 7.29823 0.192469L5.76758 3.1946C5.84017 3.19129 5.91312 3.18938 5.98652 3.18938C7.05851 3.18938 8.04874 3.54588 8.84518 4.14634L10.6977 0.512804C10.7535 0.403486 10.7484 0.273035 10.6843 0.168419C10.6202 0.0637801 10.5063 0 10.3836 0Z" fill="black"/>
    <path d="M5.98628 3.89465C3.75162 3.89465 1.93359 5.71268 1.93359 7.94734C1.93359 10.182 3.75162 12 5.98628 12C8.22093 12 10.039 10.182 10.039 7.94734C10.039 5.71268 8.22093 3.89465 5.98628 3.89465ZM5.98628 10.6202C4.53264 10.6202 3.35002 9.4376 3.35002 7.98396C3.35002 6.53033 4.53264 5.3477 5.98628 5.3477C7.43991 5.3477 8.62254 6.53033 8.62254 7.98396C8.62254 9.4376 7.43991 10.6202 5.98628 10.6202Z" fill="black"/>
    <path d="M7.77483 8.72536C8.18329 7.73995 7.71557 6.61001 6.73017 6.20156C5.74476 5.7931 4.61482 6.26082 4.20637 7.24622C3.79791 8.23163 4.26563 9.36157 5.25103 9.77003C6.23644 10.1785 7.36638 9.71077 7.77483 8.72536Z" fill="black"/>
  </g>
  <defs>
    <clipPath id="clip0_656_1747">
      <rect width="12" height="12" fill="white"/>
    </clipPath>
  </defs>
</svg>