<svg xmlns="http://www.w3.org/2000/svg" width="144" height="32" viewBox="0 0 144 32" fill="none">
  <g clip-path="url(#clip0_979_1705)">
    <path fill-rule="evenodd" clip-rule="evenodd" d="M61.4772 15.5021C62.3457 15.166 63.0909 14.5727 63.6129 13.8014C64.135 13.0302 64.409 12.118 64.3983 11.1867C64.3983 7.30291 61.6431 5.37759 57.8589 5.37759H47.9336V26.4896H58.722C62.0415 26.4896 65.2946 24.166 65.2946 20.6141C65.2946 16.3983 61.4772 15.5353 61.4772 15.5021ZM53.112 9.75934H56.9626C57.2284 9.74336 57.4944 9.78394 57.7433 9.87838C57.9922 9.97282 58.2182 10.119 58.4065 10.3072C58.5947 10.4954 58.7409 10.7215 58.8353 10.9703C58.9297 11.2192 58.9703 11.4853 58.9543 11.751C58.949 12.0166 58.8901 12.2783 58.781 12.5204C58.6719 12.7625 58.5149 12.9801 58.3195 13.1599C58.1241 13.3398 57.8944 13.4783 57.6441 13.567C57.3938 13.6558 57.1281 13.693 56.8631 13.6763H53.112V9.75934ZM56.9958 22.0747H53.112V17.9253H56.8962C58.7884 17.9253 59.6846 18.7552 59.6846 19.9834C59.6846 21.5104 58.556 22.0747 56.9958 22.0747Z" fill="#E30613"/>
    <path fill-rule="evenodd" clip-rule="evenodd" d="M76.7135 4.84647C70.6056 4.84647 67.0205 9.72613 67.0205 15.9004C67.0205 22.0747 70.6056 26.9543 76.7135 26.9543C82.8213 26.9543 86.4064 22.1079 86.4064 15.9004C86.4064 9.69294 82.8545 4.84647 76.7135 4.84647ZM76.7135 21.9087C73.7259 21.9087 72.2321 19.2199 72.2321 15.9004C72.2321 12.5809 73.7259 9.9253 76.7135 9.9253C79.701 9.9253 81.228 12.6141 81.228 15.9004C81.228 19.2531 79.701 21.9087 76.7135 21.9087Z" fill="#E30613"/>
    <path fill-rule="evenodd" clip-rule="evenodd" d="M97.6596 13.6763L96.9293 13.5104C95.1368 13.1452 93.7094 12.6805 93.7094 11.3859C93.7094 9.9917 95.0704 9.42739 96.2654 9.42739C97.0806 9.44012 97.8845 9.62059 98.6269 9.95753C99.3693 10.2945 100.034 10.7807 100.581 11.3859L103.867 8.13278C102.373 6.43983 99.95 4.81328 96.1658 4.81328C91.7177 4.81328 88.3318 7.3029 88.3318 11.4523C88.3318 15.2365 91.0538 17.0954 94.3733 17.7925L95.1036 17.9585C97.8588 18.5228 98.8878 18.9544 98.8878 20.2822C98.8878 21.5436 97.7592 22.3734 96.033 22.3734C93.9749 22.3734 92.116 21.4772 90.6886 19.6515L87.3359 22.971C89.1949 25.195 91.5517 26.9212 96.0994 26.9212C100.05 26.9212 104.265 24.6639 104.265 20.0498C104.332 15.2365 100.68 14.3071 97.6596 13.6763Z" fill="#E30613"/>
    <path fill-rule="evenodd" clip-rule="evenodd" d="M116.083 21.9087C113.759 21.9087 111.336 19.9834 111.336 15.7676C111.336 12.0166 113.593 9.92531 115.95 9.92531C117.809 9.92531 118.904 10.7884 119.767 12.2822L124.016 9.46058C121.892 6.24067 119.369 4.87967 115.883 4.87967C109.51 4.87967 106.058 9.82573 106.058 15.8008C106.058 22.0747 109.875 26.9876 115.817 26.9876C120 26.9876 121.991 25.527 124.149 22.4066L119.867 19.5187C119.004 20.9129 118.074 21.9087 116.083 21.9087Z" fill="#E30613"/>
    <path fill-rule="evenodd" clip-rule="evenodd" d="M138.19 5.37759V13.1452H131.784V5.37759H126.24V26.4896H131.784V18.1577H138.19V26.4896H143.734V5.37759H138.19Z" fill="#E30613"/>
    <path d="M16 0C12.8355 0 9.74207 0.938384 7.11088 2.69649C4.4797 4.45459 2.42894 6.95345 1.21793 9.87706C0.00693254 12.8007 -0.309921 16.0177 0.307443 19.1214C0.924806 22.2251 2.44866 25.0761 4.6863 27.3137C6.92394 29.5513 9.77487 31.0752 12.8786 31.6926C15.9823 32.3099 19.1993 31.9931 22.1229 30.7821C25.0466 29.5711 27.5454 27.5203 29.3035 24.8891C31.0616 22.2579 32 19.1645 32 16C31.9974 11.7573 30.3108 7.68921 27.3108 4.6892C24.3108 1.68919 20.2427 0.00263819 16 0ZM16 30.5062C13.1309 30.5062 10.3263 29.6554 7.94078 28.0615C5.55524 26.4675 3.69595 24.202 2.598 21.5513C1.50006 18.9006 1.21279 15.9839 1.77252 13.17C2.33224 10.356 3.71383 7.77128 5.74256 5.74255C7.77129 3.71382 10.3561 2.33223 13.17 1.77251C15.9839 1.21278 18.9006 1.50005 21.5513 2.598C24.202 3.69594 26.4675 5.55524 28.0615 7.94077C29.6555 10.3263 30.5062 13.1309 30.5062 16C30.5027 19.8462 28.9733 23.5339 26.2536 26.2536C23.5339 28.9732 19.8462 30.5027 16 30.5062Z" fill="#1D1D1B"/>
    <path d="M22.6057 6.0083H21.5103V11.4855H10.5227V6.0083H9.3941C7.74102 7.09886 6.38435 8.58252 5.44567 10.3263C4.50698 12.0701 4.01562 14.0196 4.01562 16C4.01562 17.9804 4.50698 19.9299 5.44567 21.6737C6.38435 23.4175 7.74102 24.9011 9.3941 25.9917H10.5227V20.5145H21.5103V25.9917H22.6057C24.2588 24.9011 25.6155 23.4175 26.5542 21.6737C27.4928 19.9299 27.9842 17.9804 27.9842 16C27.9842 14.0196 27.4928 12.0701 26.5542 10.3263C25.6155 8.58252 24.2588 7.09886 22.6057 6.0083ZM8.99576 23.834C7.8892 22.8508 7.00348 21.6443 6.39694 20.294C5.7904 18.9437 5.47681 17.4803 5.47681 16C5.47681 14.5197 5.7904 13.0563 6.39694 11.706C7.00348 10.3557 7.8892 9.14919 8.99576 8.16598V23.834ZM21.5103 18.9876H10.5227V12.9793H21.5103V18.9876ZM23.0041 23.8008V20.4813V11.4855V8.16598C24.101 9.15156 24.9782 10.357 25.5787 11.7038C26.1792 13.0506 26.4895 14.5088 26.4895 15.9834C26.4895 17.458 26.1792 18.9162 25.5787 20.263C24.9782 21.6099 24.101 22.8152 23.0041 23.8008Z" fill="#1D1D1B"/>
  </g>
  <defs>
    <clipPath id="clip0_979_1705">
      <rect width="143.734" height="32" fill="white"/>
    </clipPath>
  </defs>
</svg>