<svg xmlns="http://www.w3.org/2000/svg" width="32" height="32" viewBox="0 0 32 32" fill="none">
  <path d="M16.0002 6.67667C10.8592 6.67667 6.67676 10.8591 6.67676 16.0001C6.67676 21.1411 10.8592 25.3235 16.0002 25.3235C21.1412 25.3235 25.3236 21.1411 25.3236 16.0001C25.3236 10.8591 21.1412 6.67667 16.0002 6.67667ZM20.207 16.0001L16.0002 20.2069L11.7934 16.0001L16.0002 11.7933L20.207 16.0001Z" fill="#FF4026"/>
  <path d="M26.1825 5.81754C23.4626 3.0978 19.8465 1.59991 16.0001 1.59991C12.1537 1.59991 8.53758 3.0978 5.81772 5.81754C3.09798 8.5374 1.6001 12.1535 1.6001 15.9999C1.6001 19.8463 3.09798 23.4624 5.81772 26.1823C8.53758 28.902 12.1537 30.3999 16.0001 30.3999C19.8465 30.3999 23.4626 28.902 26.1825 26.1823C28.9022 23.4624 30.4001 19.8463 30.4001 15.9999C30.4001 12.1535 28.9022 8.5374 26.1825 5.81754ZM16.0001 27.0109C9.92864 27.0109 4.98916 22.0714 4.98916 15.9999C4.98916 9.92846 9.92864 4.98898 16.0001 4.98898C22.0716 4.98898 27.011 9.92846 27.011 15.9999C27.011 22.0714 22.0716 27.0109 16.0001 27.0109Z" fill="#FF4026"/>
</svg>