<svg class="svg-icon" xmlns="http://www.w3.org/2000/svg" width="20" height="20" viewBox="0 0 20 20" fill="none">
  <path d="M10 4.17285C6.78689 4.17285 4.17285 6.78689 4.17285 10C4.17285 13.2131 6.78689 15.8271 10 15.8271C13.2131 15.8271 15.8271 13.2131 15.8271 10C15.8271 6.78689 13.2131 4.17285 10 4.17285ZM12.6292 10L10 12.6292L7.37077 10L10 7.37077L12.6292 10Z" fill="white"/>
  <path d="M16.364 3.63602C14.6641 1.93618 12.404 1 10 1C7.59602 1 5.33593 1.93618 3.63602 3.63602C1.93618 5.33593 1 7.59602 1 10C1 12.404 1.93618 14.6641 3.63602 16.364C5.33593 18.0638 7.59602 19 10 19C12.404 19 14.6641 18.0638 16.364 16.364C18.0638 14.6641 19 12.404 19 10C19 7.59602 18.0638 5.33593 16.364 3.63602ZM10 16.8818C6.20534 16.8818 3.11816 13.7947 3.11816 10C3.11816 6.20534 6.20534 3.11816 10 3.11816C13.7947 3.11816 16.8818 6.20534 16.8818 10C16.8818 13.7947 13.7947 16.8818 10 16.8818Z" fill="white"/>
</svg>